<?xml version="1.0" encoding="utf-8"?>
<!-- Generator: Adobe Illustrator 27.2.0, SVG Export Plug-In . SVG Version: 6.00 Build 0)  -->
<svg version="1.1" id="Слой_1" xmlns:xodm="http://www.corel.com/coreldraw/odm/2003"
	 xmlns="http://www.w3.org/2000/svg" xmlns:xlink="http://www.w3.org/1999/xlink" x="0px" y="0px" viewBox="0 0 730.7 219.7"
	 style="enable-background:new 0 0 730.7 219.7;" xml:space="preserve">
<style type="text/css">
	.st0{fill-rule:evenodd;clip-rule:evenodd;fill:#FFFFFF;}
</style>
<g id="Слой_x0020_1">
	<g id="_2532403599264">
		<path class="st0" d="M122.7,0.1c3.2,0,5.7,2.3,5.7,5l0,86c0,2.8-2.5,5.1-5.7,5.1h-15.3c-3.1,0-5.7-2.3-5.7-5.1v-86
			c0-2.8,2.6-5,5.7-5L122.7,0.1L122.7,0.1z"/>
		<path class="st0" d="M4.9,74.6c1-3,3.9-4.7,6.6-3.9l81.8,26.6c2.7,0.9,4.1,4,3.1,7l-4.7,14.6c-1,2.9-3.9,4.7-6.6,3.8L3.2,96.1
			c-2.6-0.9-4-4-3-7C0.1,89.1,4.9,74.6,4.9,74.6z"/>
		<path class="st0" d="M39.2,209.6c-2.6-1.9-3.3-5.2-1.6-7.4l50.6-69.6c1.7-2.3,5.1-2.7,7.6-0.8l12.4,9c2.5,1.8,3.3,5.2,1.6,7.5
			l-50.6,69.6c-1.6,2.2-5.1,2.5-7.6,0.7L39.2,209.6L39.2,209.6z"/>
		<path class="st0" d="M178.4,218.6c-2.6,1.9-5.9,1.5-7.6-0.7l-50.6-69.6c-1.7-2.3-1-5.6,1.6-7.5l12.4-9c2.5-1.8,5.9-1.5,7.6,0.8
			l50.6,69.6c1.6,2.2,0.9,5.6-1.6,7.4L178.4,218.6L178.4,218.6z"/>
		<path class="st0" d="M229.9,89.1c1,3-0.4,6.1-3,7L145,122.7c-2.7,0.9-5.7-0.8-6.6-3.8l-4.7-14.6c-1-2.9,0.4-6.1,3.1-7l81.8-26.6
			c2.6-0.9,5.6,0.9,6.6,3.9L229.9,89.1L229.9,89.1z"/>
		<path class="st0" d="M264.8,75.9c0-2.4,2-4.4,4.4-4.4l92.5-0.2c2.4,0,4.5,2,4.5,4.4l0,13.8c0,2.4-1.3,5.9-2.8,7.8l-64.7,81.2
			c-1.5,1.9-0.7,3.5,1.6,3.5H362c2.4,0,4.4,2,4.4,4.4v14.9c0,2.4-2,4.4-4.4,4.4h-95.7c-2.4,0-4.4-2-4.4-4.4l0-14.9
			c0-2.4,1.2-5.9,2.7-7.9l64-79.9c1.5-1.9,0.7-3.4-1.6-3.4l-57.7,0.2c-2.4,0-4.4-2-4.4-4.4L264.8,75.9L264.8,75.9z"/>
		<path class="st0" d="M473,123.9c2.4,0,4.4,2,4.4,4.4v14.5c0,2.4-2,4.4-4.4,4.4h-56.3c-2.4,0-4.5,2-4.5,4.5l0,25.6
			c0,2.4,2,4.5,4.5,4.5h62.2c2.4,0,4.4,2,4.4,4.4l0,15.2c0,2.4-2,4.4-4.4,4.4h-89.7c-2.4,0-4.4-2-4.4-4.4l0-125.6
			c0-2.4,2-4.4,4.4-4.4h89.6c2.4,0,4.4,2,4.4,4.4v15.1c0,2.4-2,4.4-4.4,4.4h-62.1c-2.4,0-4.5,2-4.5,4.4l0,19.7c0,2.4,2,4.5,4.5,4.5
			H473z"/>
		<path class="st0" d="M570,201.4c0,2.4-2,4.4-4.4,4.4h-19.5c-2.4,0-4.4-2-4.4-4.4l0-101.7c0-2.4-2-4.4-4.5-4.4h-31.5
			c-2.4,0-4.4-2-4.4-4.4l0-15.1c0-2.4,2-4.4,4.4-4.4h100c2.4,0,4.4,2,4.4,4.4v15.1c0,2.4-2,4.4-4.4,4.4h-31.3c-2.4,0-4.4,2-4.4,4.4
			L570,201.4z"/>
		<path class="st0" d="M705.8,205.8c-2.4,0-5-1.9-5.8-4.2l-5.9-19.2c-0.7-2.4-3.3-4.2-5.7-4.2h-40.9c-2.4,0-5,1.9-5.8,4.2l-6.4,19.3
			c-0.7,2.3-3.3,4.2-5.8,4.2h-20.7c-2.4,0-3.7-1.8-2.9-4.2l45-126.1c0.8-2.3,3.5-4.2,5.9-4.2h22.9c2.4,0,5.1,1.9,5.9,4.2l44.7,126.1
			c0.2,0.5,0.2,0.9,0.2,1.3c0,1.6-1.2,2.8-3.2,2.8H705.8L705.8,205.8z M652.2,150.8c-0.8,2.4,0.6,4.2,3,4.2h25.3
			c2.4,0,3.8-2,3.1-4.2l-14.1-44.4c-0.7-2.3-2-2.3-2.8,0L652.2,150.8L652.2,150.8z"/>
	</g>
</g>
</svg>
