<?xml version="1.0" encoding="UTF-8"?>
<!DOCTYPE svg PUBLIC "-//W3C//DTD SVG 1.1//EN" "http://www.w3.org/Graphics/SVG/1.1/DTD/svg11.dtd">
<!-- Creator: CorelDRAW -->
<svg xmlns="http://www.w3.org/2000/svg" xml:space="preserve" width="257.776mm" height="77.497mm" version="1.1" style="shape-rendering:geometricPrecision; text-rendering:geometricPrecision; image-rendering:optimizeQuality; fill-rule:evenodd; clip-rule:evenodd"
viewBox="0 0 25777.6 7749.7"
 xmlns:xlink="http://www.w3.org/1999/xlink"
 xmlns:xodm="http://www.corel.com/coreldraw/odm/2003">
 <defs>
  <style type="text/css">
   <![CDATA[
    .fil0 {fill:#C21F39}
   ]]>
  </style>
 </defs>
 <g id="Слой_x0020_1">
  <metadata id="CorelCorpID_0Corel-Layer"/>
  <g id="_2532403599264">
   <path class="fil0" d="M4327.78 2.89c111.99,0 200.99,80.4 200.99,178.03l0.02 3035.15c0,100.51 -89.02,180.91 -201.01,180.91l-539.84 0c-109.12,0 -201.01,-80.4 -201.01,-180.91l0 -3035.15c0,-97.63 91.89,-178.03 201.01,-178.03l539.84 0z"/>
   <path class="fil0" d="M171.55 2630.57c34.59,-106.52 138.55,-166.34 231.4,-136.19l2886.79 937.33c95.59,31.04 144.57,140.54 109.99,247.05l-166.72 513.46c-33.7,103.78 -138.55,166.35 -234.14,135.31l-2886.78 -937.35c-92.86,-30.15 -140.96,-142.38 -107.26,-246.16l166.72 -513.45z"/>
   <path class="fil0" d="M1384.25 7392.49c-90.55,-65.9 -115.2,-183.28 -57.75,-262.22l1785.98 -2454.06c59.14,-81.26 178.43,-93.89 268.98,-27.99l436.48 317.66c88.23,64.21 115.21,183.29 56.07,264.55l-1785.99 2454.05c-57.45,78.94 -179.06,89.88 -267.29,25.67l-436.48 -317.66z"/>
   <path class="fil0" d="M6294.99 7710.15c-90.55,65.9 -209.83,53.26 -267.28,-25.68l-1786 -2454.04c-59.14,-81.26 -34.48,-198.65 56.07,-264.55l436.48 -317.66c88.23,-64.21 209.84,-53.27 268.98,27.99l1785.99 2454.05c57.45,78.94 30.47,198.02 -57.76,262.23l-436.48 317.66z"/>
   <path class="fil0" d="M8110.89 3144.02c34.58,106.51 -14.4,216 -107.26,246.15l-2886.78 937.36c-95.59,31.04 -199.55,-28.8 -234.14,-135.32l-166.72 -513.45c-33.7,-103.78 14.4,-216.01 109.99,-247.05l2886.78 -937.34c92.86,-30.16 197.71,32.41 231.41,136.2l166.72 513.45z"/>
   <path class="fil0" d="M9342.2 2678.61c0,-86.15 71.75,-155.06 155.02,-155.06l3264.89 -5.74c86.13,0 157.95,68.91 157.95,155.05l0.01 485.29c0,86.15 -45.96,209.61 -97.67,275.67l-2282.8 2865.72c-54.57,66.06 -25.86,123.5 57.42,123.5l2173.7 0c86.14,0 155.08,68.89 155.08,155.03l0 525.51c0,83.23 -68.95,155.04 -155.08,155.04l-3376.84 0c-86.13,0 -155.09,-71.81 -155.09,-155.04l0.02 -525.51c0,-86.14 43.09,-209.59 94.78,-278.53l2256.97 -2819.79c54.57,-66.04 25.85,-120.59 -57.44,-120.59l-2035.9 5.73c-83.27,0 -155.02,-68.91 -155.02,-155.06l0 -531.22z"/>
   <path class="fil0" d="M16686.69 4369.91c83.28,0 155.03,68.92 155.03,155.06l0 511.14c0,86.13 -71.77,155.02 -155.04,155.02l-1987.07 0c-86.13,0 -157.96,71.82 -157.96,157.96l0.01 904.54c0,86.13 71.8,157.9 157.95,157.9l2193.81 0c86.14,0 155.03,68.94 155.03,155.08l0.01 536.97c0,86.15 -68.9,155.04 -155.04,155.04l-3164.36 0c-83.27,0 -155.1,-68.89 -155.1,-155.04l0.02 -4430.72c0,-83.27 71.79,-155.05 155.08,-155.05l3161.49 0c86.15,0 155.04,71.78 155.04,155.05l0 534.1c0,83.27 -68.9,155.06 -155.04,155.06l-2190.94 0c-86.13,0 -157.96,68.92 -157.96,155.07l0.01 694.89c0,86.15 71.8,157.93 157.95,157.93l1987.08 0z"/>
   <path class="fil0" d="M20109.23 7103.58c0,86.15 -68.95,155.04 -155.1,155.04l-689.14 0c-86.14,0 -155.04,-68.89 -155.04,-155.04l0.02 -3586.49c0,-86.15 -71.83,-155.07 -157.97,-155.07l-1111.25 0c-83.29,0 -155.06,-71.79 -155.06,-155.06l0.02 -534.1c0,-83.27 71.75,-155.05 155.03,-155.05l3529.05 0c86.14,0 155.08,71.78 155.08,155.05l0 534.1c0,83.27 -68.94,155.06 -155.08,155.06l-1105.53 0c-83.27,0 -155.04,68.92 -155.04,155.07l0.01 3586.49z"/>
   <path class="fil0" d="M24898.84 7258.62c-86.16,0 -178.03,-66.02 -203.88,-146.44l-209.59 -677.68c-25.85,-83.27 -117.78,-149.3 -201.05,-149.3l-1441.46 0c-86.14,0 -178.02,66.03 -203.87,146.43l-226.83 680.55c-25.86,80.42 -117.73,146.44 -203.88,146.44l-729.37 0c-86.13,0 -132.11,-63.16 -103.39,-146.44l1587.94 -4447.93c28.72,-80.4 123.45,-146.44 209.6,-146.44l806.91 0c86.15,0 180.88,66.04 206.73,146.44l1576.43 4447.93c5.82,16.34 8.58,32.08 8.54,46.79 -0.14,57.72 -43.25,99.65 -111.89,99.65l-760.94 0zm-1892.3 -1938.23c-28.69,83.27 20.08,149.29 106.22,149.29l893.06 0c86.15,0 134.93,-68.89 109.12,-149.29l-496.79 -1567.85c-25.85,-80.4 -68.9,-80.4 -97.62,0l-513.99 1567.85z"/>
  </g>
 </g>
</svg>
