<?xml version="1.0" encoding="utf-8"?>
<!-- Generator: Adobe Illustrator 27.2.0, SVG Export Plug-In . SVG Version: 6.00 Build 0)  -->
<svg version="1.1" id="Слой_1" xmlns="http://www.w3.org/2000/svg" xmlns:xlink="http://www.w3.org/1999/xlink" x="0px" y="0px"
	 viewBox="0 0 230 230" style="enable-background:new 0 0 230 230;" xml:space="preserve">
<style type="text/css">
	.st0{fill-rule:evenodd;clip-rule:evenodd;fill:#FFFFFF;}
</style>
<g id="Слой_x0020_1">
	<g id="_2494216281296">
		<path class="st0" d="M122.6,5.2c3.2,0,5.7,2.3,5.7,5v86c0,2.8-2.5,5.1-5.7,5.1h-15.3c-3.1,0-5.7-2.3-5.7-5.1v-86
			c0-2.8,2.6-5,5.7-5C107.3,5.2,122.6,5.2,122.6,5.2z"/>
		<path class="st0" d="M4.8,79.7c1-3,3.9-4.7,6.6-3.9l81.8,26.6c2.7,0.9,4.1,4,3.1,7L91.6,124c-1,2.9-3.9,4.7-6.6,3.8L3.1,101.2
			c-2.6-0.9-4-4-3-7L4.8,79.7L4.8,79.7z"/>
		<path class="st0" d="M39.2,214.6c-2.6-1.9-3.3-5.2-1.6-7.4l50.6-69.6c1.7-2.3,5.1-2.7,7.6-0.8l12.4,9c2.5,1.8,3.3,5.2,1.6,7.5
			l-50.6,69.6c-1.6,2.2-5.1,2.5-7.6,0.7L39.2,214.6L39.2,214.6z"/>
		<path class="st0" d="M178.4,223.6c-2.6,1.9-5.9,1.5-7.6-0.7l-50.6-69.6c-1.7-2.3-1-5.6,1.6-7.5l12.4-9c2.5-1.8,5.9-1.5,7.6,0.8
			l50.6,69.6c1.6,2.2,0.9,5.6-1.6,7.4L178.4,223.6L178.4,223.6z"/>
		<path class="st0" d="M229.9,94.2c1,3-0.4,6.1-3,7L145,127.8c-2.7,0.9-5.7-0.8-6.6-3.8l-4.7-14.6c-1-2.9,0.4-6.1,3.1-7l81.8-26.6
			c2.6-0.9,5.6,0.9,6.6,3.9L229.9,94.2L229.9,94.2z"/>
	</g>
</g>
</svg>
